name C:/MyDriveSym/Projects/mobilecap/Data\Session20210820_0001\mocap\ForceDataProcessed\DJAsym3_forces.mot
datacolumns 28
datarows 16
range 1.97200000 1.97950000
endheader 
time	R_ground_force_vx	R_ground_force_vy	R_ground_force_vz	R_ground_force_px	R_ground_force_py	R_ground_force_pz	R_ground_torque_x	R_ground_torque_y	R_ground_torque_z	L_ground_force_vx	L_ground_force_vy	L_ground_force_vz	L_ground_force_px	L_ground_force_py	L_ground_force_pz	L_ground_torque_x	L_ground_torque_y	L_ground_torque_z	3_ground_force_vx	3_ground_force_vy	3_ground_force_vz	3_ground_force_px	3_ground_force_py	3_ground_force_pz	3_ground_torque_x	3_ground_torque_y	3_ground_torque_z	
          1.97200000	        -84.65548000	        886.19013600	        -31.48443200	         -0.13992700	          0.00600000	         -0.43408100	          0.00000000	         -3.82295500	          0.00000000	        -69.62455800	        655.06624100	         64.72466100	         -0.10458800	          0.00600000	         -0.75142000	          0.00000000	          2.41837500	          0.00000000	          0.00000000	          0.00000000	          0.00000000	          0.00000000	          0.00000000	          0.00000000	          0.00000000	          0.00000000	          0.00000000	
          1.97250000	        -84.11702900	        880.58085200	        -30.49700100	         -0.13962000	          0.00600000	         -0.43413000	          0.00000000	         -3.78841800	          0.00000000	        -67.40726400	        648.12800400	         63.30705000	         -0.10423500	          0.00600000	         -0.75142600	          0.00000000	          2.40994200	          0.00000000	          0.00000000	          0.00000000	          0.00000000	          0.00000000	          0.00000000	          0.00000000	          0.00000000	          0.00000000	          0.00000000	
          1.97300000	        -83.54661600	        874.84263200	        -29.50279300	         -0.13931000	          0.00600000	         -0.43418000	          0.00000000	         -3.75331800	          0.00000000	        -65.16921700	        641.10574500	         61.88885300	         -0.10388300	          0.00600000	         -0.75143400	          0.00000000	          2.40213900	          0.00000000	          0.00000000	          0.00000000	          0.00000000	          0.00000000	          0.00000000	          0.00000000	          0.00000000	          0.00000000	          0.00000000	
          1.97350000	        -82.94368700	        868.97464300	        -28.50231300	         -0.13899900	          0.00600000	         -0.43423000	          0.00000000	         -3.71770300	          0.00000000	        -62.91253900	        634.00166500	         60.47025700	         -0.10353100	          0.00600000	         -0.75144200	          0.00000000	          2.39505900	          0.00000000	          0.00000000	          0.00000000	          0.00000000	          0.00000000	          0.00000000	          0.00000000	          0.00000000	          0.00000000	          0.00000000	
          1.97400000	        -82.30770800	        862.97615000	        -27.49611000	         -0.13868500	          0.00600000	         -0.43428100	          0.00000000	         -3.68162300	          0.00000000	        -60.63937600	        626.81792800	         59.05148100	         -0.10317900	          0.00600000	         -0.75145300	          0.00000000	          2.38878900	          0.00000000	          0.00000000	          0.00000000	          0.00000000	          0.00000000	          0.00000000	          0.00000000	          0.00000000	          0.00000000	          0.00000000	
          1.97450000	        -81.63816700	        856.84653400	        -26.48477800	         -0.13836900	          0.00600000	         -0.43433200	          0.00000000	         -3.64513800	          0.00000000	        -58.35187800	        619.55663700	         57.63278000	         -0.10282900	          0.00600000	         -0.75146400	          0.00000000	          2.38340600	          0.00000000	          0.00000000	          0.00000000	          0.00000000	          0.00000000	          0.00000000	          0.00000000	          0.00000000	          0.00000000	          0.00000000	
          1.97500000	        -80.93458800	        850.58531300	        -25.46896300	         -0.13805100	          0.00600000	         -0.43438400	          0.00000000	         -3.60831500	          0.00000000	        -56.05217600	        612.21981800	         56.21444700	         -0.10247900	          0.00600000	         -0.75147700	          0.00000000	          2.37897800	          0.00000000	          0.00000000	          0.00000000	          0.00000000	          0.00000000	          0.00000000	          0.00000000	          0.00000000	          0.00000000	          0.00000000	
          1.97550000	        -80.19653700	        844.19218400	        -24.44935700	         -0.13773100	          0.00600000	         -0.43443600	          0.00000000	         -3.57122400	          0.00000000	        -53.74235900	        604.80940400	         54.79680700	         -0.10213000	          0.00600000	         -0.75149100	          0.00000000	          2.37556500	          0.00000000	          0.00000000	          0.00000000	          0.00000000	          0.00000000	          0.00000000	          0.00000000	          0.00000000	          0.00000000	          0.00000000	
          1.97600000	        -79.42363300	        837.66705300	        -23.42670200	         -0.13740900	          0.00600000	         -0.43448900	          0.00000000	         -3.53393900	          0.00000000	        -51.42445700	        597.32721100	         53.38020800	         -0.10178100	          0.00600000	         -0.75150700	          0.00000000	          2.37321800	          0.00000000	          0.00000000	          0.00000000	          0.00000000	          0.00000000	          0.00000000	          0.00000000	          0.00000000	          0.00000000	          0.00000000	
          1.97650000	        -78.61553300	        831.01006100	        -22.40178300	         -0.13708400	          0.00600000	         -0.43454100	          0.00000000	         -3.49653800	          0.00000000	        -49.10042600	        589.77491200	         51.96500100	         -0.10143400	          0.00600000	         -0.75152500	          0.00000000	          2.37198100	          0.00000000	          0.00000000	          0.00000000	          0.00000000	          0.00000000	          0.00000000	          0.00000000	          0.00000000	          0.00000000	          0.00000000	
          1.97700000	        -77.77193500	        824.22160300	        -21.37543100	         -0.13675800	          0.00600000	         -0.43459400	          0.00000000	         -3.45909900	          0.00000000	        -46.77215100	        582.15402900	         50.55153500	         -0.10108700	          0.00600000	         -0.75154400	          0.00000000	          2.37189300	          0.00000000	          0.00000000	          0.00000000	          0.00000000	          0.00000000	          0.00000000	          0.00000000	          0.00000000	          0.00000000	          0.00000000	
          1.97750000	        -76.89257500	        817.30232200	        -20.34853000	         -0.13642800	          0.00600000	         -0.43464800	          0.00000000	         -3.42170100	          0.00000000	        -44.44144600	        574.46593800	         49.14014200	         -0.10074000	          0.00600000	         -0.75156400	          0.00000000	          2.37298400	          0.00000000	          0.00000000	          0.00000000	          0.00000000	          0.00000000	          0.00000000	          0.00000000	          0.00000000	          0.00000000	          0.00000000	
          1.97800000	        -75.97724600	        810.25308700	        -19.32201800	         -0.13609700	          0.00600000	         -0.43470100	          0.00000000	         -3.38442100	          0.00000000	        -42.11005400	        566.71187100	         47.73113900	         -0.10039500	          0.00600000	         -0.75158600	          0.00000000	          2.37527500	          0.00000000	          0.00000000	          0.00000000	          0.00000000	          0.00000000	          0.00000000	          0.00000000	          0.00000000	          0.00000000	          0.00000000	
          1.97850000	        -75.02580600	        803.07497500	        -18.29689200	         -0.13576300	          0.00600000	         -0.43475400	          0.00000000	         -3.34733200	          0.00000000	        -39.77964200	        558.89291800	         46.32480100	         -0.10005000	          0.00600000	         -0.75160900	          0.00000000	          2.37877300	          0.00000000	          0.00000000	          0.00000000	          0.00000000	          0.00000000	          0.00000000	          0.00000000	          0.00000000	          0.00000000	          0.00000000	
          1.97900000	        -74.03818700	        795.76925600	        -17.27420700	         -0.13542700	          0.00600000	         -0.43480600	          0.00000000	         -3.31049700	          0.00000000	        -37.45178700	        551.01004200	         44.92134300	         -0.09970600	          0.00600000	         -0.75163400	          0.00000000	          2.38347500	          0.00000000	          0.00000000	          0.00000000	          0.00000000	          0.00000000	          0.00000000	          0.00000000	          0.00000000	          0.00000000	          0.00000000	
          1.97950000	        -73.01438900	        788.33736700	        -16.25506200	         -0.13508900	          0.00600000	         -0.43485900	          0.00000000	         -3.27397400	          0.00000000	        -35.12796200	        543.06409700	         43.52090900	         -0.09936300	          0.00600000	         -0.75165900	          0.00000000	          2.38936600	          0.00000000	          0.00000000	          0.00000000	          0.00000000	          0.00000000	          0.00000000	          0.00000000	          0.00000000	          0.00000000	          0.00000000	
